<mxfile host="app.diagrams.net" modified="2024-02-22T07:47:22.269Z" agent="Mozilla/5.0 (Windows NT 10.0; Win64; x64) AppleWebKit/537.36 (KHTML, like Gecko) Chrome/123.0.0.0 Safari/537.36 Edg/123.0.0.0" etag="0j5OF7Rxg2kyxO766hp7" version="23.1.1" type="github">
  <diagram name="第 1 页" id="EwMwd_kU6AnY28zHRjP-">
    <mxGraphModel dx="792" dy="461" grid="1" gridSize="10" guides="1" tooltips="1" connect="1" arrows="1" fold="1" page="1" pageScale="1" pageWidth="827" pageHeight="1169" math="0" shadow="0">
      <root>
        <mxCell id="0" />
        <mxCell id="1" parent="0" />
        <mxCell id="woScWQKpYDabYdyXrbcq-23" style="edgeStyle=orthogonalEdgeStyle;rounded=0;orthogonalLoop=1;jettySize=auto;html=1;entryX=0;entryY=0.5;entryDx=0;entryDy=0;" edge="1" parent="1" source="woScWQKpYDabYdyXrbcq-1" target="woScWQKpYDabYdyXrbcq-22">
          <mxGeometry relative="1" as="geometry" />
        </mxCell>
        <mxCell id="woScWQKpYDabYdyXrbcq-1" value="Client" style="rounded=1;whiteSpace=wrap;html=1;" vertex="1" parent="1">
          <mxGeometry x="70" y="407.5" width="50" height="20" as="geometry" />
        </mxCell>
        <mxCell id="woScWQKpYDabYdyXrbcq-19" style="edgeStyle=orthogonalEdgeStyle;rounded=0;orthogonalLoop=1;jettySize=auto;html=1;" edge="1" parent="1" source="woScWQKpYDabYdyXrbcq-3">
          <mxGeometry relative="1" as="geometry">
            <mxPoint x="340" y="590" as="targetPoint" />
          </mxGeometry>
        </mxCell>
        <mxCell id="woScWQKpYDabYdyXrbcq-3" value="" style="rounded=1;whiteSpace=wrap;html=1;fillColor=#ffe6cc;strokeColor=#d79b00;" vertex="1" parent="1">
          <mxGeometry x="190" y="390" width="300" height="180" as="geometry" />
        </mxCell>
        <mxCell id="woScWQKpYDabYdyXrbcq-4" value="解析器" style="rounded=1;whiteSpace=wrap;html=1;" vertex="1" parent="1">
          <mxGeometry x="278" y="400" width="120" height="30" as="geometry" />
        </mxCell>
        <mxCell id="woScWQKpYDabYdyXrbcq-5" value="预处理器" style="rounded=1;whiteSpace=wrap;html=1;" vertex="1" parent="1">
          <mxGeometry x="278" y="440" width="120" height="30" as="geometry" />
        </mxCell>
        <mxCell id="woScWQKpYDabYdyXrbcq-6" value="优化器" style="rounded=1;whiteSpace=wrap;html=1;" vertex="1" parent="1">
          <mxGeometry x="278" y="480" width="120" height="30" as="geometry" />
        </mxCell>
        <mxCell id="woScWQKpYDabYdyXrbcq-7" value="执行器" style="rounded=1;whiteSpace=wrap;html=1;" vertex="1" parent="1">
          <mxGeometry x="280" y="520" width="120" height="30" as="geometry" />
        </mxCell>
        <mxCell id="woScWQKpYDabYdyXrbcq-18" style="edgeStyle=orthogonalEdgeStyle;rounded=0;orthogonalLoop=1;jettySize=auto;html=1;entryX=0.5;entryY=1;entryDx=0;entryDy=0;" edge="1" parent="1" source="woScWQKpYDabYdyXrbcq-8" target="woScWQKpYDabYdyXrbcq-3">
          <mxGeometry relative="1" as="geometry" />
        </mxCell>
        <mxCell id="woScWQKpYDabYdyXrbcq-8" value="存储引擎层" style="rounded=1;whiteSpace=wrap;html=1;fillColor=#fff2cc;strokeColor=#d6b656;" vertex="1" parent="1">
          <mxGeometry x="195" y="590" width="290" height="60" as="geometry" />
        </mxCell>
        <mxCell id="woScWQKpYDabYdyXrbcq-22" value="连接器" style="rounded=1;whiteSpace=wrap;html=1;fillColor=#f8cecc;strokeColor=#b85450;" vertex="1" parent="1">
          <mxGeometry x="160" y="400" width="80" height="35" as="geometry" />
        </mxCell>
        <mxCell id="woScWQKpYDabYdyXrbcq-24" style="edgeStyle=orthogonalEdgeStyle;rounded=0;orthogonalLoop=1;jettySize=auto;html=1;entryX=0.01;entryY=0.593;entryDx=0;entryDy=0;entryPerimeter=0;" edge="1" parent="1" source="woScWQKpYDabYdyXrbcq-22" target="woScWQKpYDabYdyXrbcq-4">
          <mxGeometry relative="1" as="geometry" />
        </mxCell>
      </root>
    </mxGraphModel>
  </diagram>
</mxfile>
